<?xml version="1.0" encoding="UTF-8"?>
<svg id="Layer_2" data-name="Layer 2" xmlns="http://www.w3.org/2000/svg" viewBox="0 0 1757.3 427.29">
  <g id="Lockup_Grid" data-name="Lockup Grid">
    <g>
      <g>
        <path d="M377.92,0h-171.31v.14h-.14v137.48h59.13v-12.59h0V59.13h111.95c19.55,0,35.41,15.85,35.41,35.41v232.62c0,22.65-18.36,41.01-41.01,41.01h-165.34v59.13h165.6c55.17,0,99.89-44.7,99.91-99.87l.1-233.12c0-52.08-42.22-94.31-94.31-94.31Z"/>
        <polygon points="265.56 184.18 265.56 321.91 206.47 321.91 206.47 243.27 59.09 243.27 59.09 427.28 0 427.28 0 .17 59.09 .17 59.09 184.18 265.56 184.18"/>
      </g>
      <g>
        <path d="M579.05,0h55.72v118.63h135.25V0h55.27v299.26h-55.27v-128.51h-135.25v128.51h-55.72V0Z"/>
        <path d="M891.97,0h55.72v299.26h-55.72V0Z"/>
        <path d="M1267.85,299.26h-58.41l-22.47-66.95h-113.23l-21.57,66.95h-58.86L1099.35,0h62.91l105.59,299.26ZM1129.91,60.21l-41.34,127.16h83.58l-42.24-127.16Z"/>
        <path d="M1488.86,0v52.12h-85.37v247.14h-54.82V52.12h-85.37V0h225.57Z"/>
        <path d="M1757.3,0v52.12h-85.37v247.14h-54.82V52.12h-85.37V0h225.57Z"/>
      </g>
      <g>
        <path d="M610.5,358.16c5.95,0,11.18,1.44,15.69,4.31,4.51,2.87,8.02,6.9,10.53,12.08,2.51,5.18,3.76,11.25,3.76,18.2,0,6.42-1.17,12.05-3.51,16.9-2.34,4.85-5.6,8.61-9.78,11.28-4.18,2.67-9.08,4.01-14.69,4.01h-28.98v-66.79h26.98ZM595.95,369.29v44.52h15.54c5.15,0,9.16-1.84,12.03-5.51,2.87-3.68,4.31-8.86,4.31-15.54,0-7.42-1.6-13.19-4.81-17.3-3.21-4.11-7.72-6.17-13.54-6.17h-13.54Z"/>
        <path d="M696.76,358.16v11.63h-34.4v15.34h31.49v11.63h-31.49v16.55h34.4v11.63h-46.83v-66.79h46.83Z"/>
        <path d="M703.36,358.16h13.04l17.65,53.25,17.45-53.25h13.14l-23.67,66.79h-14.04l-23.57-66.79Z"/>
        <path d="M818.6,358.16v11.63h-34.4v15.34h31.49v11.63h-31.49v16.55h34.4v11.63h-46.83v-66.79h46.83Z"/>
        <path d="M870.61,424.94h-41.62v-66.79h12.43v55.15h29.18v11.63Z"/>
        <path d="M875.06,392.35c0-7.09,1.29-13.25,3.86-18.5,2.57-5.25,6.2-9.34,10.88-12.28,4.68-2.94,10.13-4.41,16.35-4.41s11.65,1.47,16.29,4.41c4.65,2.94,8.27,7.04,10.88,12.28,2.61,5.25,3.91,11.42,3.91,18.5,0,6.69-1.3,12.53-3.91,17.55-2.61,5.01-6.23,8.91-10.88,11.68-4.65,2.78-10.08,4.16-16.29,4.16s-11.67-1.39-16.35-4.16c-4.68-2.77-8.31-6.67-10.88-11.68-2.57-5.01-3.86-10.86-3.86-17.55ZM924.59,392.35c0-7.55-1.62-13.44-4.86-17.65-3.24-4.21-7.77-6.32-13.59-6.32s-10.43,2.11-13.64,6.32c-3.21,4.21-4.81,10.1-4.81,17.65,0,6.95,1.6,12.37,4.81,16.25,3.21,3.88,7.75,5.82,13.64,5.82s10.34-1.94,13.59-5.82c3.24-3.88,4.86-9.29,4.86-16.25Z"/>
        <path d="M976.27,402.08h-17.15v22.86h-12.43v-66.79h28.38c4.68,0,8.79.92,12.33,2.76,3.54,1.84,6.28,4.4,8.22,7.67,1.94,3.28,2.91,7.09,2.91,11.43s-.92,8.17-2.76,11.48c-1.84,3.31-4.43,5.9-7.77,7.77-3.34,1.87-7.25,2.81-11.73,2.81ZM973.96,368.89h-14.84v22.06h14.84c3.68,0,6.58-.95,8.72-2.86,2.14-1.9,3.21-4.59,3.21-8.07s-1.05-6.2-3.16-8.17c-2.11-1.97-5.03-2.96-8.77-2.96Z"/>
        <path d="M1047.58,424.94h-11.33l-17.65-49.44v49.44h-12.43v-66.79h18.15l17.65,49.64,17.25-49.64h18.45v66.79h-12.33v-49.44l-17.75,49.44Z"/>
        <path d="M1136.23,358.16v11.63h-34.4v15.34h31.49v11.63h-31.49v16.55h34.4v11.63h-46.83v-66.79h46.83Z"/>
        <path d="M1190.34,358.16h12.24v66.79h-12.94l-30.59-48.94v48.94h-12.43v-66.79h15.44l28.28,46.43v-46.43Z"/>
        <path d="M1260.28,358.16v11.63h-19.05v55.15h-12.24v-55.15h-19.05v-11.63h50.34Z"/>
        <path d="M1287.86,391.35c0-6.88,1.24-12.89,3.71-18,2.47-5.11,5.97-9.09,10.48-11.93,4.51-2.84,9.78-4.26,15.79-4.26,5.42,0,10.26.97,14.54,2.91,4.28,1.94,7.7,4.75,10.28,8.42,2.57,3.68,4.06,8.12,4.46,13.34h-12.64c-.2-4.08-1.79-7.34-4.76-9.78-2.98-2.44-6.87-3.66-11.68-3.66-5.55,0-9.86,2.01-12.94,6.02-3.08,4.01-4.61,9.66-4.61,16.95s1.54,13.04,4.61,17.05c3.07,4.01,7.39,6.02,12.94,6.02,4.75,0,8.61-1.2,11.58-3.61,2.97-2.41,4.6-5.72,4.86-9.93h12.64c-.34,5.35-1.81,9.88-4.41,13.59-2.61,3.71-6.05,6.52-10.33,8.42-4.28,1.9-9.13,2.86-14.54,2.86-6.02,0-11.27-1.44-15.74-4.31-4.48-2.87-7.97-6.89-10.48-12.03-2.51-5.15-3.76-11.16-3.76-18.05Z"/>
        <path d="M1354.29,392.35c0-7.09,1.29-13.25,3.86-18.5,2.57-5.25,6.2-9.34,10.88-12.28,4.68-2.94,10.13-4.41,16.35-4.41s11.65,1.47,16.29,4.41c4.65,2.94,8.27,7.04,10.88,12.28,2.61,5.25,3.91,11.42,3.91,18.5,0,6.69-1.3,12.53-3.91,17.55-2.61,5.01-6.23,8.91-10.88,11.68-4.65,2.78-10.08,4.16-16.29,4.16s-11.67-1.39-16.35-4.16c-4.68-2.77-8.31-6.67-10.88-11.68-2.57-5.01-3.86-10.86-3.86-17.55ZM1403.83,392.35c0-7.55-1.62-13.44-4.86-17.65-3.24-4.21-7.77-6.32-13.59-6.32s-10.43,2.11-13.64,6.32c-3.21,4.21-4.81,10.1-4.81,17.65,0,6.95,1.6,12.37,4.81,16.25,3.21,3.88,7.75,5.82,13.64,5.82s10.34-1.94,13.59-5.82c3.24-3.88,4.86-9.29,4.86-16.25Z"/>
        <path d="M1467.33,424.94h-11.33l-17.65-49.44v49.44h-12.43v-66.79h18.15l17.65,49.64,17.25-49.64h18.45v66.79h-12.33v-49.44l-17.75,49.44Z"/>
        <path d="M1538.74,402.08h-17.15v22.86h-12.43v-66.79h28.38c4.68,0,8.79.92,12.33,2.76,3.54,1.84,6.28,4.4,8.22,7.67,1.94,3.28,2.91,7.09,2.91,11.43s-.92,8.17-2.76,11.48c-1.84,3.31-4.43,5.9-7.77,7.77-3.34,1.87-7.25,2.81-11.73,2.81ZM1536.43,368.89h-14.84v22.06h14.84c3.68,0,6.58-.95,8.72-2.86,2.14-1.9,3.21-4.59,3.21-8.07s-1.05-6.2-3.16-8.17c-2.11-1.97-5.03-2.96-8.77-2.96Z"/>
        <path d="M1621.61,424.94h-13.04l-5.01-14.94h-25.27l-4.81,14.94h-13.14l23.67-66.79h14.04l23.57,66.79ZM1590.82,371.6l-9.23,28.38h18.65l-9.43-28.38Z"/>
        <path d="M1672.47,358.16h12.23v66.79h-12.94l-30.59-48.94v48.94h-12.43v-66.79h15.44l28.28,46.43v-46.43Z"/>
        <path d="M1714.39,402.28l-22.56-44.12h13.74l15.14,30.89,15.04-30.89h13.74l-22.87,44.12v22.66h-12.23v-22.66Z"/>
      </g>
    </g>
  </g>
</svg>