<?xml version="1.0" encoding="UTF-8"?>
<svg id="Layer_2" data-name="Layer 2" xmlns="http://www.w3.org/2000/svg" viewBox="0 0 922.43 834.66">
  <defs>
    <style>
      .cls-1 {
        fill: #fff;
      }
    </style>
  </defs>
  <g id="Lockup_Grid" data-name="Lockup Grid">
    <g>
      <path class="cls-1" d="M738.21,0h-334.63v.28h-.28v268.55h115.5v-24.6h0V115.5h218.69c38.2,0,69.17,30.97,69.17,69.17v454.39c0,44.24-35.87,80.11-80.11,80.11h-322.97v115.5h323.49c107.76,0,195.12-87.32,195.16-195.08l.2-455.37C922.43,82.48,839.95,0,738.21,0Z"/>
      <polygon class="cls-1" points="518.73 359.77 518.73 628.82 403.31 628.82 403.31 475.2 115.42 475.2 115.42 834.64 0 834.64 0 .32 115.42 .32 115.42 359.77 518.73 359.77"/>
    </g>
  </g>
</svg>