<?xml version="1.0" encoding="UTF-8"?>
<svg id="Lockup_Grid" data-name="Lockup Grid" xmlns="http://www.w3.org/2000/svg" viewBox="0 0 1920 1080">
  <defs>
    <style>
      .cls-1 {
        fill: #1f334e;
      }
    </style>
  </defs>
  <g>
    <path class="cls-1" d="M756.28,453.08h-69.7v.06h-.06v55.93h24.06v-5.12h0v-26.81h45.55c7.96,0,14.41,6.45,14.41,14.41v94.64c0,9.21-7.47,16.69-16.69,16.69h-67.27v24.06h67.38c22.44,0,40.64-18.19,40.65-40.63l.04-94.84c0-21.19-17.18-38.37-38.37-38.37Z"/>
    <polygon class="cls-1" points="710.56 528.01 710.56 584.05 686.52 584.05 686.52 552.05 626.56 552.05 626.56 626.92 602.52 626.92 602.52 453.15 626.56 453.15 626.56 528.01 710.56 528.01"/>
  </g>
  <g>
    <path class="cls-1" d="M838.11,453.08h22.67v48.26h55.03v-48.26h22.49v121.75h-22.49v-52.28h-55.03v52.28h-22.67v-121.75Z"/>
    <path class="cls-1" d="M965.42,453.08h22.67v121.75h-22.67v-121.75Z"/>
    <path class="cls-1" d="M1118.35,574.83h-23.77l-9.14-27.24h-46.07l-8.78,27.24h-23.95l43.14-121.75h25.59l42.96,121.75ZM1062.22,477.58l-16.82,51.74h34l-17.18-51.74Z"/>
    <path class="cls-1" d="M1208.26,453.08v21.21h-34.73v100.55h-22.3v-100.55h-34.73v-21.21h91.77Z"/>
    <path class="cls-1" d="M1317.48,453.08v21.21h-34.73v100.55h-22.3v-100.55h-34.73v-21.21h91.77Z"/>
  </g>
  <g>
    <path class="cls-1" d="M850.9,598.79c2.42,0,4.55.59,6.38,1.75,1.84,1.17,3.26,2.81,4.28,4.92,1.02,2.11,1.53,4.58,1.53,7.41,0,2.61-.48,4.9-1.43,6.87-.95,1.97-2.28,3.5-3.98,4.59-1.7,1.09-3.69,1.63-5.98,1.63h-11.79v-27.17h10.98ZM844.98,603.32v18.11h6.32c2.09,0,3.73-.75,4.9-2.24,1.17-1.5,1.75-3.6,1.75-6.32,0-3.02-.65-5.37-1.96-7.04-1.31-1.67-3.14-2.51-5.51-2.51h-5.51Z"/>
    <path class="cls-1" d="M886,598.79v4.73h-13.99v6.24h12.81v4.73h-12.81v6.73h13.99v4.73h-19.05v-27.17h19.05Z"/>
    <path class="cls-1" d="M888.68,598.79h5.3l7.18,21.66,7.1-21.66h5.34l-9.63,27.17h-5.71l-9.59-27.17Z"/>
    <path class="cls-1" d="M935.57,598.79v4.73h-13.99v6.24h12.81v4.73h-12.81v6.73h13.99v4.73h-19.05v-27.17h19.05Z"/>
    <path class="cls-1" d="M956.73,625.97h-16.93v-27.17h5.06v22.44h11.87v4.73Z"/>
    <path class="cls-1" d="M958.54,612.71c0-2.88.52-5.39,1.57-7.53,1.05-2.14,2.52-3.8,4.43-5,1.9-1.2,4.12-1.79,6.65-1.79s4.74.6,6.63,1.79c1.89,1.2,3.37,2.86,4.43,5,1.06,2.14,1.59,4.64,1.59,7.53,0,2.72-.53,5.1-1.59,7.14-1.06,2.04-2.54,3.62-4.43,4.75-1.89,1.13-4.1,1.69-6.63,1.69s-4.75-.56-6.65-1.69c-1.9-1.13-3.38-2.71-4.43-4.75-1.05-2.04-1.57-4.42-1.57-7.14ZM978.69,612.71c0-3.07-.66-5.47-1.98-7.18-1.32-1.71-3.16-2.57-5.53-2.57s-4.24.86-5.55,2.57c-1.31,1.71-1.96,4.11-1.96,7.18,0,2.83.65,5.03,1.96,6.61,1.31,1.58,3.15,2.37,5.55,2.37s4.21-.79,5.53-2.37c1.32-1.58,1.98-3.78,1.98-6.61Z"/>
    <path class="cls-1" d="M999.72,616.66h-6.98v9.3h-5.06v-27.17h11.55c1.9,0,3.58.37,5.02,1.12,1.44.75,2.56,1.79,3.35,3.12.79,1.33,1.18,2.88,1.18,4.65s-.37,3.33-1.12,4.67c-.75,1.35-1.8,2.4-3.16,3.16-1.36.76-2.95,1.14-4.77,1.14ZM998.78,603.16h-6.04v8.98h6.04c1.5,0,2.68-.39,3.55-1.16.87-.77,1.31-1.87,1.31-3.28s-.43-2.52-1.29-3.32c-.86-.8-2.05-1.2-3.57-1.2Z"/>
    <path class="cls-1" d="M1028.73,625.97h-4.61l-7.18-20.11v20.11h-5.06v-27.17h7.38l7.18,20.2,7.02-20.2h7.51v27.17h-5.02v-20.11l-7.22,20.11Z"/>
    <path class="cls-1" d="M1064.8,598.79v4.73h-13.99v6.24h12.81v4.73h-12.81v6.73h13.99v4.73h-19.05v-27.17h19.05Z"/>
    <path class="cls-1" d="M1086.81,598.79h4.98v27.17h-5.26l-12.44-19.91v19.91h-5.06v-27.17h6.28l11.51,18.89v-18.89Z"/>
    <path class="cls-1" d="M1115.27,598.79v4.73h-7.75v22.44h-4.98v-22.44h-7.75v-4.73h20.48Z"/>
    <path class="cls-1" d="M1126.49,612.3c0-2.8.5-5.24,1.51-7.32,1.01-2.08,2.43-3.7,4.26-4.85,1.84-1.16,3.98-1.73,6.43-1.73,2.2,0,4.17.39,5.92,1.18,1.74.79,3.13,1.93,4.18,3.43,1.05,1.5,1.65,3.31,1.82,5.43h-5.14c-.08-1.66-.73-2.98-1.94-3.98-1.21-.99-2.79-1.49-4.75-1.49-2.26,0-4.01.82-5.26,2.45-1.25,1.63-1.88,3.93-1.88,6.9s.63,5.3,1.88,6.94c1.25,1.63,3,2.45,5.26,2.45,1.93,0,3.5-.49,4.71-1.47,1.21-.98,1.87-2.33,1.98-4.04h5.14c-.14,2.18-.73,4.02-1.8,5.53-1.06,1.51-2.46,2.65-4.2,3.43-1.74.77-3.71,1.16-5.92,1.16-2.45,0-4.58-.58-6.41-1.75-1.82-1.17-3.24-2.8-4.26-4.9-1.02-2.09-1.53-4.54-1.53-7.34Z"/>
    <path class="cls-1" d="M1153.51,612.71c0-2.88.52-5.39,1.57-7.53,1.05-2.14,2.52-3.8,4.43-5,1.9-1.2,4.12-1.79,6.65-1.79s4.74.6,6.63,1.79c1.89,1.2,3.37,2.86,4.43,5,1.06,2.14,1.59,4.64,1.59,7.53,0,2.72-.53,5.1-1.59,7.14-1.06,2.04-2.54,3.62-4.43,4.75-1.89,1.13-4.1,1.69-6.63,1.69s-4.75-.56-6.65-1.69c-1.9-1.13-3.38-2.71-4.43-4.75-1.05-2.04-1.57-4.42-1.57-7.14ZM1173.67,612.71c0-3.07-.66-5.47-1.98-7.18-1.32-1.71-3.16-2.57-5.53-2.57s-4.24.86-5.55,2.57c-1.31,1.71-1.96,4.11-1.96,7.18,0,2.83.65,5.03,1.96,6.61,1.31,1.58,3.15,2.37,5.55,2.37s4.21-.79,5.53-2.37c1.32-1.58,1.98-3.78,1.98-6.61Z"/>
    <path class="cls-1" d="M1199.51,625.97h-4.61l-7.18-20.11v20.11h-5.06v-27.17h7.38l7.18,20.2,7.02-20.2h7.51v27.17h-5.02v-20.11l-7.22,20.11Z"/>
    <path class="cls-1" d="M1228.56,616.66h-6.98v9.3h-5.06v-27.17h11.55c1.9,0,3.58.37,5.02,1.12,1.44.75,2.56,1.79,3.35,3.12.79,1.33,1.18,2.88,1.18,4.65s-.37,3.33-1.12,4.67c-.75,1.35-1.8,2.4-3.16,3.16-1.36.76-2.95,1.14-4.77,1.14ZM1227.62,603.16h-6.04v8.98h6.04c1.5,0,2.68-.39,3.55-1.16.87-.77,1.31-1.87,1.31-3.28s-.43-2.52-1.29-3.32c-.86-.8-2.05-1.2-3.57-1.2Z"/>
    <path class="cls-1" d="M1262.27,625.97h-5.3l-2.04-6.08h-10.28l-1.96,6.08h-5.34l9.63-27.17h5.71l9.59,27.17ZM1249.75,604.26l-3.75,11.55h7.59l-3.84-11.55Z"/>
    <path class="cls-1" d="M1282.97,598.79h4.98v27.17h-5.26l-12.44-19.91v19.91h-5.06v-27.17h6.28l11.51,18.89v-18.89Z"/>
    <path class="cls-1" d="M1300.02,616.75l-9.18-17.95h5.59l6.16,12.57,6.12-12.57h5.59l-9.3,17.95v9.22h-4.98v-9.22Z"/>
  </g>
</svg>