<?xml version="1.0" encoding="UTF-8"?>
<svg id="Lockup_Grid" data-name="Lockup Grid" xmlns="http://www.w3.org/2000/svg" viewBox="0 0 1920 1080">
  <defs>
    <style>
      .cls-1 {
        fill: #1f334e;
      }
    </style>
  </defs>
  <path class="cls-1" d="M1059.99,389.35h-120.79v.1h-.1v96.94h41.69v-8.88h0v-46.47h78.94c13.79,0,24.97,11.18,24.97,24.97v164.02c0,15.97-12.95,28.92-28.92,28.92h-116.58v41.69h116.77c38.9,0,70.43-31.52,70.45-70.42l.07-164.38c0-36.72-29.77-66.5-66.5-66.5Z"/>
  <polygon class="cls-1" points="980.76 519.22 980.76 616.34 939.1 616.34 939.1 560.89 835.18 560.89 835.18 690.64 793.51 690.64 793.51 389.47 835.18 389.47 835.18 519.22 980.76 519.22"/>
</svg>